<svg width="18" height="18" viewBox="0 0 18 18" fill="none" xmlns="http://www.w3.org/2000/svg">
<path d="M2.79654 4.59308C3.78874 4.59308 4.59308 3.78874 4.59308 2.79654C4.59308 1.80434 3.78874 1 2.79654 1C1.80434 1 1 1.80434 1 2.79654C1 3.78874 1.80434 4.59308 2.79654 4.59308Z" stroke="#191919" stroke-width="0.9" stroke-linecap="round" stroke-linejoin="round"/>
<path d="M4.59326 2.91602H16.5702" stroke="#191919" stroke-width="0.9" stroke-linecap="round" stroke-linejoin="round"/>
<path d="M8.785 10.5816C9.7772 10.5816 10.5815 9.77726 10.5815 8.78506C10.5815 7.79286 9.7772 6.98853 8.785 6.98853C7.7928 6.98853 6.98846 7.79286 6.98846 8.78506C6.98846 9.77726 7.7928 10.5816 8.785 10.5816Z" stroke="#191919" stroke-width="0.9" stroke-linecap="round" stroke-linejoin="round"/>
<path d="M1 8.78516H6.98846" stroke="#191919" stroke-width="0.9" stroke-linecap="round" stroke-linejoin="round"/>
<path d="M10.5817 8.78516H16.5701" stroke="#191919" stroke-width="0.9" stroke-linecap="round" stroke-linejoin="round"/>
<path d="M14.7735 16.5699C15.7657 16.5699 16.57 15.7655 16.57 14.7733C16.57 13.7811 15.7657 12.9768 14.7735 12.9768C13.7813 12.9768 12.9769 13.7811 12.9769 14.7733C12.9769 15.7655 13.7813 16.5699 14.7735 16.5699Z" stroke="#191919" stroke-width="0.9" stroke-linecap="round" stroke-linejoin="round"/>
<path d="M12.9769 14.7732H1" stroke="#191919" stroke-width="0.9" stroke-linecap="round" stroke-linejoin="round"/>
</svg>
