<svg width="25" height="25" viewBox="0 0 25 25" fill="none" xmlns="http://www.w3.org/2000/svg">
<path d="M22.3175 4.01794H2.67824C1.6922 4.01794 0.892853 4.77199 0.892853 5.70215V18.3337C0.892853 19.2639 1.6922 20.0179 2.67824 20.0179H22.3175C23.3035 20.0179 24.1029 19.2639 24.1029 18.3337V5.70215C24.1029 4.77199 23.3035 4.01794 22.3175 4.01794Z" stroke="white" stroke-width="1.5" stroke-linecap="round" stroke-linejoin="round"/>
<path d="M0.892853 14.8248H24.1029" stroke="white" stroke-width="1.5" stroke-linecap="round" stroke-linejoin="round"/>
<path d="M16.143 8.85428L19.9517 8.97757L19.9234 10.4504" stroke="white" stroke-linecap="round" stroke-linejoin="round"/>
<path d="M18.295 8.94568L18.2703 10.2344" stroke="white" stroke-linecap="round" stroke-linejoin="round"/>
<path d="M16.1638 8.85421C16.1638 9.72874 15.455 10.4375 14.5808 10.4375C13.7067 10.4375 12.9979 9.72874 12.9979 8.85421C12.9979 7.97967 13.7067 7.27087 14.5808 7.27087C15.455 7.27087 16.1638 7.97967 16.1638 8.85421Z" stroke="white"/>
</svg>
